<svg width="69" height="70" viewBox="0 0 69 70" fill="none" xmlns="http://www.w3.org/2000/svg">
<path d="M15.0937 64.9465C17.9531 64.9465 20.6953 63.8135 22.7173 61.7966C24.7391 59.7796 25.875 57.0442 25.875 54.192C25.875 51.3397 24.7391 48.6042 22.7173 46.5872C20.6953 44.5704 17.9531 43.4373 15.0937 43.4373C12.2344 43.4373 9.49212 44.5704 7.47025 46.5872C5.44837 48.6042 4.3125 51.3397 4.3125 54.192C4.3125 57.0442 5.44837 59.7796 7.47025 61.7966C9.49212 63.8135 12.2344 64.9465 15.0937 64.9465ZM53.9063 26.23C56.7656 26.23 59.5078 25.0969 61.5298 23.0801C63.5516 21.0631 64.6875 18.3276 64.6875 15.4753C64.6875 12.6231 63.5516 9.8876 61.5298 7.87073C59.5078 5.85385 56.7656 4.72078 53.9063 4.72078C51.0469 4.72078 48.3047 5.85385 46.2827 7.87073C44.2609 9.8876 43.125 12.6231 43.125 15.4753C43.125 18.3276 44.2609 21.0631 46.2827 23.0801C48.3047 25.0969 51.0469 26.23 53.9063 26.23ZM53.9063 64.9465C51.0469 64.9465 48.3047 63.8135 46.2827 61.7966C44.2609 59.7796 43.125 57.0442 43.125 54.192C43.125 51.3397 44.2609 48.6042 46.2827 46.5872C48.3047 44.5704 51.0469 43.4373 53.9063 43.4373C56.7656 43.4373 59.5078 44.5704 61.5298 46.5872C63.5516 48.6042 64.6875 51.3397 64.6875 54.192C64.6875 57.0442 63.5516 59.7796 61.5298 61.7966C59.5078 63.8135 56.7656 64.9465 53.9063 64.9465ZM69 15.4753C69 19.4686 67.4098 23.2983 64.5792 26.1219C61.7485 28.9455 57.9093 30.5318 53.9063 30.5318C49.9031 30.5318 46.064 28.9455 43.2333 26.1219C40.4027 23.2983 38.8125 19.4686 38.8125 15.4753C38.8125 11.4822 40.4027 7.65251 43.2333 4.82888C46.064 2.00524 49.9031 0.418945 53.9063 0.418945C57.9093 0.418945 61.7485 2.00524 64.5792 4.82888C67.4098 7.65251 69 11.4822 69 15.4753ZM30.1875 54.192C30.1875 58.1851 28.5973 62.0148 25.7667 64.8384C22.936 67.6621 19.0969 69.2484 15.0937 69.2484C11.0906 69.2484 7.25149 67.6621 4.42086 64.8384C1.59023 62.0148 0 58.1851 0 54.192C0 50.1987 1.59023 46.369 4.42086 43.5454C7.25149 40.7218 11.0906 39.1355 15.0937 39.1355C19.0969 39.1355 22.936 40.7218 25.7667 43.5454C28.5973 46.369 30.1875 50.1987 30.1875 54.192ZM53.9063 69.2484C57.9093 69.2484 61.7485 67.6621 64.5792 64.8384C67.4098 62.0148 69 58.1851 69 54.192C69 50.1987 67.4098 46.369 64.5792 43.5454C61.7485 40.7218 57.9093 39.1355 53.9063 39.1355C49.9031 39.1355 46.064 40.7218 43.2333 43.5454C40.4027 46.369 38.8125 50.1987 38.8125 54.192C38.8125 58.1851 40.4027 62.0148 43.2333 64.8384C46.064 67.6621 49.9031 69.2484 53.9063 69.2484ZM15.0937 21.9281C14.2443 21.9281 13.4031 21.7612 12.6183 21.437C11.8334 21.1127 11.1203 20.6374 10.5197 20.0381C9.91897 19.439 9.44249 18.7276 9.11741 17.9447C8.79232 17.1619 8.625 16.3228 8.625 15.4753C8.625 14.628 8.79232 13.7889 9.11741 13.006C9.44249 12.2231 9.91897 11.5118 10.5197 10.9126C11.1203 10.3134 11.8334 9.83809 12.6183 9.51382C13.4031 9.18953 14.2443 9.02262 15.0937 9.02262C16.8094 9.02262 18.4547 9.70247 19.6678 10.9126C20.881 12.1227 21.5625 13.764 21.5625 15.4753C21.5625 17.1868 20.881 18.828 19.6678 20.0381C18.4547 21.2483 16.8094 21.9281 15.0937 21.9281ZM15.0937 30.5318C19.0969 30.5318 22.936 28.9455 25.7667 26.1219C28.5973 23.2983 30.1875 19.4686 30.1875 15.4753C30.1875 11.4822 28.5973 7.65251 25.7667 4.82888C22.936 2.00524 19.0969 0.418945 15.0937 0.418945C11.0906 0.418945 7.25149 2.00524 4.42086 4.82888C1.59023 7.65251 0 11.4822 0 15.4753C0 19.4686 1.59023 23.2983 4.42086 26.1219C7.25149 28.9455 11.0906 30.5318 15.0937 30.5318Z" fill="#1A222D"/>
<path d="M15.0938 39.6357C18.9646 39.6358 22.6764 41.1696 25.4131 43.8994C28.1498 46.6294 29.6875 50.3321 29.6875 54.1924C29.6874 58.0524 28.1497 61.7545 25.4131 64.4844C22.6764 67.2142 18.9646 68.748 15.0938 68.748C11.223 68.748 7.51117 67.2143 4.77441 64.4844C2.03778 61.7545 0.500101 58.0524 0.5 54.1924C0.5 50.3321 2.03769 46.6294 4.77441 43.8994C7.51116 41.1696 11.223 39.6357 15.0938 39.6357ZM53.9062 39.6357C57.777 39.6357 61.4889 41.1696 64.2256 43.8994C66.9623 46.6294 68.5 50.3321 68.5 54.1924C68.4999 58.0524 66.9622 61.7545 64.2256 64.4844C61.4889 67.2142 57.777 68.748 53.9062 68.748C50.0354 68.748 46.3236 67.2142 43.5869 64.4844C40.8503 61.7545 39.3126 58.0524 39.3125 54.1924C39.3125 50.3321 40.8502 46.6294 43.5869 43.8994C46.3236 41.1696 50.0354 39.6358 53.9062 39.6357ZM15.0938 42.9375C12.1023 42.9375 9.23293 44.1229 7.11719 46.2334C5.00144 48.3441 3.8125 51.2071 3.8125 54.1924C3.8126 57.1774 5.00156 60.0398 7.11719 62.1504C9.23293 64.2609 12.1023 65.4463 15.0938 65.4463C18.0853 65.4463 20.9545 64.2608 23.0703 62.1504C25.1859 60.0398 26.3749 57.1774 26.375 54.1924C26.375 51.2071 25.186 48.3441 23.0703 46.2334C20.9545 44.1229 18.0853 42.9375 15.0938 42.9375ZM53.9062 42.9375C50.9147 42.9375 48.0455 44.1229 45.9297 46.2334C43.814 48.3441 42.625 51.2071 42.625 54.1924C42.6251 57.1774 43.8141 60.0398 45.9297 62.1504C48.0455 64.2608 50.9147 65.4463 53.9062 65.4463C56.8977 65.4463 59.767 64.2609 61.8828 62.1504C63.9984 60.0398 65.1874 57.1774 65.1875 54.1924C65.1875 51.2071 63.9985 48.3441 61.8828 46.2334C59.767 44.1229 56.8977 42.9375 53.9062 42.9375ZM15.0938 0.918945C18.9645 0.918965 22.6764 2.45286 25.4131 5.18262C28.1498 7.91258 29.6875 11.6154 29.6875 15.4756C29.6874 19.3358 28.1497 23.0377 25.4131 25.7676C22.6764 28.4975 18.9647 30.0322 15.0938 30.0322C11.2229 30.0322 7.51118 28.4975 4.77441 25.7676C2.03776 23.0377 0.500074 19.3358 0.5 15.4756C0.5 11.6154 2.03769 7.91258 4.77441 5.18262C7.51115 2.45283 11.2231 0.918945 15.0938 0.918945ZM53.9062 0.918945C57.7769 0.918945 61.4889 2.45284 64.2256 5.18262C66.9623 7.91258 68.5 11.6154 68.5 15.4756C68.4999 19.3358 66.9622 23.0377 64.2256 25.7676C61.4888 28.4975 57.777 30.0322 53.9062 30.0322C50.0353 30.0322 46.3236 28.4975 43.5869 25.7676C40.8503 23.0377 39.3126 19.3358 39.3125 15.4756C39.3125 11.6154 40.8502 7.91258 43.5869 5.18262C46.3236 2.45285 50.0355 0.918963 53.9062 0.918945ZM53.9062 4.2207C50.9147 4.22072 48.0455 5.40619 45.9297 7.5166C43.8139 9.62715 42.625 12.4904 42.625 15.4756C42.6251 18.4607 43.8141 21.323 45.9297 23.4336V23.4346C48.0455 25.5448 50.9148 26.7295 53.9062 26.7295C56.8976 26.7295 59.767 25.5449 61.8828 23.4346V23.4336C63.9984 21.323 65.1874 18.4607 65.1875 15.4756C65.1875 12.4904 63.9986 9.62715 61.8828 7.5166C59.767 5.40617 56.8977 4.2207 53.9062 4.2207ZM15.0938 8.52246C14.179 8.52246 13.273 8.70253 12.4277 9.05176C11.5824 9.40102 10.8141 9.91314 10.167 10.5586C9.51982 11.2042 9.00558 11.9708 8.65527 12.8145C8.30503 13.658 8.125 14.5625 8.125 15.4756C8.12504 16.3888 8.30497 17.2933 8.65527 18.1367C9.00557 18.9803 9.51982 19.7471 10.167 20.3926V20.3916C10.8142 21.0372 11.5823 21.5501 12.4277 21.8994C13.273 22.2485 14.179 22.4277 15.0938 22.4277C16.9415 22.4277 18.7126 21.6952 20.0195 20.3916L20.0205 20.3926C21.3276 19.0889 22.0624 17.32 22.0625 15.4756C22.0625 13.7465 21.4166 12.084 20.2588 10.8086L20.0205 10.5586C18.7136 9.25498 16.9416 8.52248 15.0938 8.52246Z" stroke="black" stroke-opacity="0.1"/>
</svg>
