<svg width="71" height="70" viewBox="0 0 71 70" fill="none" xmlns="http://www.w3.org/2000/svg">
<path d="M9.94364 0.639943L61.3698 0.640016C64.2925 0.640016 65.711 0.269893 69.1621 2.76211C71.2287 4.8318 70.9056 7.63892 70.9056 10.5659V39.9959C70.9056 42.9229 71.2287 45.7301 69.1621 47.7998C67.0954 49.8695 64.2925 49.8664 61.3698 49.8664H35.2857L12.1403 68.7198C11.594 69.128 10.9451 69.3759 10.2662 69.4358C9.58729 69.4958 8.90511 69.3653 8.29596 69.0592C7.68682 68.7529 7.17475 68.2831 6.81701 67.7021C6.45928 67.1211 6.27 66.4519 6.27034 65.7694V51.0322C4.3219 51.0322 2.45326 50.2571 1.0755 48.8773C-0.30225 47.4976 0.0369161 45.6261 0.0369161 43.6748L0.036858 10.5659C0.036858 7.63892 0.0847567 4.8318 2.1514 2.76211C4.21802 0.692394 7.02098 0.639943 9.94364 0.639943ZM33.372 43.6748H61.3698C62.3442 43.6748 63.2785 43.2871 63.9673 42.5973C64.6561 41.9074 65.0432 40.9717 65.0432 39.9959V10.5659C65.0432 9.59025 64.6561 8.65454 63.9673 7.96466C63.2785 7.27475 62.3442 6.88716 61.3698 6.88716H9.94364C8.96942 6.88716 8.0351 7.27475 7.34622 7.96466C6.65735 8.65454 6.27034 9.59025 6.27034 10.5659V39.9959C6.27034 40.9717 6.65735 41.9074 7.34622 42.5973C8.0351 43.2871 8.93426 44.3183 9.90849 44.3183C11.0216 44.3183 11.5924 44.735 12.2812 45.4248C12.7241 45.8683 12.6523 47.9015 12.6523 48.8773V58.7492L33.372 43.6748ZM46.6767 32.6385C44.7282 32.6385 42.8596 31.8634 41.4818 30.4835C40.1041 29.1036 39.33 27.2322 39.33 25.281C39.33 23.3296 40.1041 21.4582 41.4818 20.0783C42.8596 18.6986 44.7282 17.9234 46.6767 17.9234C48.625 17.9234 50.4937 18.6986 51.8715 20.0783C53.2492 21.4582 54.0233 23.3296 54.0233 25.281C54.0233 27.2322 53.2492 29.1036 51.8715 30.4835C50.4937 31.8634 48.625 32.6385 46.6767 32.6385ZM24.6369 32.6385C22.6884 32.6385 20.8198 31.8634 19.442 30.4835C18.0643 29.1036 17.2902 27.2322 17.2902 25.281C17.2902 23.3296 18.0643 21.4582 19.442 20.0783C20.8198 18.6986 22.6884 17.9234 24.6369 17.9234C26.5852 17.9234 28.4539 18.6986 29.8317 20.0783C31.2095 21.4582 31.9835 23.3296 31.9835 25.281C31.9835 27.2322 31.2095 29.1036 29.8317 30.4835C28.4539 31.8634 26.5852 32.6385 24.6369 32.6385Z" fill="#1A222D"/>
<path d="M9.94336 6.38721C8.83638 6.38728 7.77471 6.82813 6.99219 7.61182C6.20985 8.39549 5.77051 9.45803 5.77051 10.5659V39.9956C5.77051 41.1037 6.20966 42.167 6.99219 42.9507C7.31662 43.2756 7.74673 43.7404 8.20898 44.1079C8.66856 44.4733 9.24893 44.8178 9.9082 44.8179C10.3967 44.8179 10.7374 44.9086 11.0244 45.0571C11.3215 45.2109 11.5924 45.442 11.9277 45.7778C11.9256 45.7756 11.982 45.8542 12.0361 46.1157C12.0843 46.3484 12.1156 46.6464 12.1338 46.979C12.1702 47.6465 12.1523 48.3722 12.1523 48.8774V59.731L12.9463 59.1538L33.5342 44.1743H61.3701C62.4772 44.1742 63.5388 43.7343 64.3213 42.9507C65.1038 42.167 65.543 41.1037 65.543 39.9956V10.5659C65.543 9.45801 65.1036 8.39548 64.3213 7.61182C63.5388 6.82812 62.4772 6.38728 61.3701 6.38721H9.94336ZM24.6367 18.4233C26.452 18.4233 28.1934 19.1455 29.4775 20.4312C30.7616 21.7171 31.4833 23.4618 31.4834 25.2808C31.4834 27.0996 30.7617 28.8443 29.4775 30.1304C28.1934 31.4162 26.4521 32.1382 24.6367 32.1382C22.8212 32.1381 21.0799 31.4163 19.7959 30.1304C18.5119 28.8443 17.79 27.0996 17.79 25.2808C17.7901 23.462 18.5121 21.7181 19.7959 20.4321C21.08 19.1463 22.8212 18.4234 24.6367 18.4233ZM46.6768 18.4233C48.492 18.4233 50.2335 19.1455 51.5176 20.4312C52.8015 21.7172 53.5234 23.4619 53.5234 25.2808C53.5234 27.0996 52.8016 28.8443 51.5176 30.1304C50.2335 31.4163 48.4922 32.1382 46.6768 32.1382C44.8612 32.1382 43.12 31.4162 41.8359 30.1304C40.5519 28.8443 39.8301 27.0996 39.8301 25.2808C39.8301 23.4619 40.5521 21.7181 41.8359 20.4321C43.1201 19.1462 44.8611 18.4233 46.6768 18.4233ZM6.77051 50.5317H6.27051C4.45497 50.5317 2.71371 49.8098 1.42969 48.5239C0.848592 47.942 0.617449 47.2535 0.537109 46.4409C0.452646 45.5863 0.537109 44.715 0.537109 43.6743V10.5659C0.537109 7.60259 0.606621 5.01707 2.50488 3.11572C4.40331 1.21446 6.98526 1.14014 9.94336 1.14014H61.3701C62.8848 1.14013 63.8849 1.05005 64.9746 1.25732C66.0242 1.457 67.1656 1.9422 68.8359 3.14404C69.7491 4.07247 70.1472 5.16661 70.3135 6.40869C70.4851 7.69107 70.4053 9.06172 70.4053 10.5659V39.9956C70.4053 41.4997 70.4851 42.8705 70.3135 44.1528C70.1455 45.4076 69.7417 46.5123 68.8086 47.4468C66.9128 49.3454 64.3388 49.3667 61.3701 49.3667H35.1074L34.9697 49.479L11.8408 68.3188C11.369 68.6714 10.8089 68.8862 10.2227 68.938C9.70963 68.9833 9.19397 68.9026 8.7207 68.7046L8.52051 68.6128C7.99431 68.3482 7.55228 67.9419 7.24316 67.4399C6.93409 66.9379 6.77028 66.3598 6.77051 65.77V50.5317Z" stroke="black" stroke-opacity="0.1"/>
</svg>
