<svg width="144" height="188" viewBox="0 0 144 188" fill="none" xmlns="http://www.w3.org/2000/svg">
<g opacity="0.5">
<path d="M2.10634 4.20327C3.26964 4.20327 4.21268 3.26234 4.21268 2.10164C4.21268 0.940935 3.26964 0 2.10634 0C0.94304 0 0 0.940935 0 2.10164C0 3.26234 0.94304 4.20327 2.10634 4.20327Z" fill="white"/>
<path d="M20.5269 4.20327C21.6902 4.20327 22.6332 3.26234 22.6332 2.10164C22.6332 0.940935 21.6902 0 20.5269 0C19.3636 0 18.4205 0.940935 18.4205 2.10164C18.4205 3.26234 19.3636 4.20327 20.5269 4.20327Z" fill="white"/>
<path d="M38.9474 4.20327C40.1107 4.20327 41.0537 3.26234 41.0537 2.10164C41.0537 0.940935 40.1107 0 38.9474 0C37.7841 0 36.8411 0.940935 36.8411 2.10164C36.8411 3.26234 37.7841 4.20327 38.9474 4.20327Z" fill="white"/>
<path d="M57.3678 4.20327C58.5311 4.20327 59.4742 3.26234 59.4742 2.10164C59.4742 0.940935 58.5311 0 57.3678 0C56.2045 0 55.2615 0.940935 55.2615 2.10164C55.2615 3.26234 56.2045 4.20327 57.3678 4.20327Z" fill="white"/>
<path d="M75.7897 4.20327C76.953 4.20327 77.896 3.26234 77.896 2.10164C77.896 0.940935 76.953 0 75.7897 0C74.6264 0 73.6833 0.940935 73.6833 2.10164C73.6833 3.26234 74.6264 4.20327 75.7897 4.20327Z" fill="white"/>
<path d="M94.2102 4.20327C95.3735 4.20327 96.3166 3.26234 96.3166 2.10164C96.3166 0.940935 95.3735 0 94.2102 0C93.0469 0 92.1039 0.940935 92.1039 2.10164C92.1039 3.26234 93.0469 4.20327 94.2102 4.20327Z" fill="white"/>
<path d="M112.631 4.20327C113.794 4.20327 114.737 3.26234 114.737 2.10164C114.737 0.940935 113.794 0 112.631 0C111.467 0 110.524 0.940935 110.524 2.10164C110.524 3.26234 111.467 4.20327 112.631 4.20327Z" fill="white"/>
<path d="M131.051 4.20327C132.215 4.20327 133.158 3.26234 133.158 2.10164C133.158 0.940935 132.215 0 131.051 0C129.888 0 128.945 0.940935 128.945 2.10164C128.945 3.26234 129.888 4.20327 131.051 4.20327Z" fill="white"/>
<path d="M2.10634 22.5841C3.26964 22.5841 4.21268 21.6431 4.21268 20.4824C4.21268 19.3217 3.26964 18.3808 2.10634 18.3808C0.94304 18.3808 0 19.3217 0 20.4824C0 21.6431 0.94304 22.5841 2.10634 22.5841Z" fill="white"/>
<path d="M20.5269 22.5841C21.6902 22.5841 22.6332 21.6431 22.6332 20.4824C22.6332 19.3217 21.6902 18.3808 20.5269 18.3808C19.3636 18.3808 18.4205 19.3217 18.4205 20.4824C18.4205 21.6431 19.3636 22.5841 20.5269 22.5841Z" fill="white"/>
<path d="M38.9474 22.5841C40.1107 22.5841 41.0537 21.6431 41.0537 20.4824C41.0537 19.3217 40.1107 18.3808 38.9474 18.3808C37.7841 18.3808 36.8411 19.3217 36.8411 20.4824C36.8411 21.6431 37.7841 22.5841 38.9474 22.5841Z" fill="white"/>
<path d="M57.3678 22.5841C58.5311 22.5841 59.4742 21.6431 59.4742 20.4824C59.4742 19.3217 58.5311 18.3808 57.3678 18.3808C56.2045 18.3808 55.2615 19.3217 55.2615 20.4824C55.2615 21.6431 56.2045 22.5841 57.3678 22.5841Z" fill="white"/>
<path d="M75.7897 22.5841C76.953 22.5841 77.896 21.6431 77.896 20.4824C77.896 19.3217 76.953 18.3808 75.7897 18.3808C74.6264 18.3808 73.6833 19.3217 73.6833 20.4824C73.6833 21.6431 74.6264 22.5841 75.7897 22.5841Z" fill="white"/>
<path d="M94.2102 22.5841C95.3735 22.5841 96.3166 21.6431 96.3166 20.4824C96.3166 19.3217 95.3735 18.3808 94.2102 18.3808C93.0469 18.3808 92.1039 19.3217 92.1039 20.4824C92.1039 21.6431 93.0469 22.5841 94.2102 22.5841Z" fill="white"/>
<path d="M112.631 22.5841C113.794 22.5841 114.737 21.6431 114.737 20.4824C114.737 19.3217 113.794 18.3808 112.631 18.3808C111.467 18.3808 110.524 19.3217 110.524 20.4824C110.524 21.6431 111.467 22.5841 112.631 22.5841Z" fill="white"/>
<path d="M131.051 22.5841C132.215 22.5841 133.158 21.6431 133.158 20.4824C133.158 19.3217 132.215 18.3808 131.051 18.3808C129.888 18.3808 128.945 19.3217 128.945 20.4824C128.945 21.6431 129.888 22.5841 131.051 22.5841Z" fill="white"/>
<path d="M2.10634 40.9635C3.26964 40.9635 4.21268 40.0225 4.21268 38.8618C4.21268 37.7011 3.26964 36.7602 2.10634 36.7602C0.94304 36.7602 0 37.7011 0 38.8618C0 40.0225 0.94304 40.9635 2.10634 40.9635Z" fill="white"/>
<path d="M20.5269 40.9635C21.6902 40.9635 22.6332 40.0225 22.6332 38.8618C22.6332 37.7011 21.6902 36.7602 20.5269 36.7602C19.3636 36.7602 18.4205 37.7011 18.4205 38.8618C18.4205 40.0225 19.3636 40.9635 20.5269 40.9635Z" fill="white"/>
<path d="M38.9474 40.9635C40.1107 40.9635 41.0537 40.0225 41.0537 38.8618C41.0537 37.7011 40.1107 36.7602 38.9474 36.7602C37.7841 36.7602 36.8411 37.7011 36.8411 38.8618C36.8411 40.0225 37.7841 40.9635 38.9474 40.9635Z" fill="white"/>
<path d="M57.3678 40.9635C58.5311 40.9635 59.4742 40.0225 59.4742 38.8618C59.4742 37.7011 58.5311 36.7602 57.3678 36.7602C56.2045 36.7602 55.2615 37.7011 55.2615 38.8618C55.2615 40.0225 56.2045 40.9635 57.3678 40.9635Z" fill="white"/>
<path d="M75.7897 40.9635C76.953 40.9635 77.896 40.0225 77.896 38.8618C77.896 37.7011 76.953 36.7602 75.7897 36.7602C74.6264 36.7602 73.6833 37.7011 73.6833 38.8618C73.6833 40.0225 74.6264 40.9635 75.7897 40.9635Z" fill="white"/>
<path d="M94.2102 40.9635C95.3735 40.9635 96.3166 40.0225 96.3166 38.8618C96.3166 37.7011 95.3735 36.7602 94.2102 36.7602C93.0469 36.7602 92.1039 37.7011 92.1039 38.8618C92.1039 40.0225 93.0469 40.9635 94.2102 40.9635Z" fill="white"/>
<path d="M112.631 40.9635C113.794 40.9635 114.737 40.0225 114.737 38.8618C114.737 37.7011 113.794 36.7602 112.631 36.7602C111.467 36.7602 110.524 37.7011 110.524 38.8618C110.524 40.0225 111.467 40.9635 112.631 40.9635Z" fill="white"/>
<path d="M131.051 40.9635C132.215 40.9635 133.158 40.0225 133.158 38.8618C133.158 37.7011 132.215 36.7602 131.051 36.7602C129.888 36.7602 128.945 37.7011 128.945 38.8618C128.945 40.0225 129.888 40.9635 131.051 40.9635Z" fill="white"/>
<path d="M2.10634 59.3429C3.26964 59.3429 4.21268 58.4019 4.21268 57.2412C4.21268 56.0805 3.26964 55.1396 2.10634 55.1396C0.94304 55.1396 0 56.0805 0 57.2412C0 58.4019 0.94304 59.3429 2.10634 59.3429Z" fill="white"/>
<path d="M20.5269 59.3429C21.6902 59.3429 22.6332 58.4019 22.6332 57.2412C22.6332 56.0805 21.6902 55.1396 20.5269 55.1396C19.3636 55.1396 18.4205 56.0805 18.4205 57.2412C18.4205 58.4019 19.3636 59.3429 20.5269 59.3429Z" fill="white"/>
<path d="M38.9474 59.3429C40.1107 59.3429 41.0537 58.4019 41.0537 57.2412C41.0537 56.0805 40.1107 55.1396 38.9474 55.1396C37.7841 55.1396 36.8411 56.0805 36.8411 57.2412C36.8411 58.4019 37.7841 59.3429 38.9474 59.3429Z" fill="white"/>
<path d="M57.3678 59.3429C58.5311 59.3429 59.4742 58.4019 59.4742 57.2412C59.4742 56.0805 58.5311 55.1396 57.3678 55.1396C56.2045 55.1396 55.2615 56.0805 55.2615 57.2412C55.2615 58.4019 56.2045 59.3429 57.3678 59.3429Z" fill="white"/>
<path d="M75.7897 59.3429C76.953 59.3429 77.896 58.4019 77.896 57.2412C77.896 56.0805 76.953 55.1396 75.7897 55.1396C74.6264 55.1396 73.6833 56.0805 73.6833 57.2412C73.6833 58.4019 74.6264 59.3429 75.7897 59.3429Z" fill="white"/>
<path d="M94.2102 59.3429C95.3735 59.3429 96.3166 58.4019 96.3166 57.2412C96.3166 56.0805 95.3735 55.1396 94.2102 55.1396C93.0469 55.1396 92.1039 56.0805 92.1039 57.2412C92.1039 58.4019 93.0469 59.3429 94.2102 59.3429Z" fill="white"/>
<path d="M112.631 59.3429C113.794 59.3429 114.737 58.4019 114.737 57.2412C114.737 56.0805 113.794 55.1396 112.631 55.1396C111.467 55.1396 110.524 56.0805 110.524 57.2412C110.524 58.4019 111.467 59.3429 112.631 59.3429Z" fill="white"/>
<path d="M131.051 59.3429C132.215 59.3429 133.158 58.4019 133.158 57.2412C133.158 56.0805 132.215 55.1396 131.051 55.1396C129.888 55.1396 128.945 56.0805 128.945 57.2412C128.945 58.4019 129.888 59.3429 131.051 59.3429Z" fill="white"/>
<path d="M2.10634 77.7222C3.26964 77.7222 4.21268 76.7813 4.21268 75.6206C4.21268 74.4599 3.26964 73.5189 2.10634 73.5189C0.94304 73.5189 0 74.4599 0 75.6206C0 76.7813 0.94304 77.7222 2.10634 77.7222Z" fill="white"/>
<path d="M20.5269 77.7222C21.6902 77.7222 22.6332 76.7813 22.6332 75.6206C22.6332 74.4599 21.6902 73.5189 20.5269 73.5189C19.3636 73.5189 18.4205 74.4599 18.4205 75.6206C18.4205 76.7813 19.3636 77.7222 20.5269 77.7222Z" fill="white"/>
<path d="M38.9474 77.7222C40.1107 77.7222 41.0537 76.7813 41.0537 75.6206C41.0537 74.4599 40.1107 73.5189 38.9474 73.5189C37.7841 73.5189 36.8411 74.4599 36.8411 75.6206C36.8411 76.7813 37.7841 77.7222 38.9474 77.7222Z" fill="white"/>
<path d="M57.3678 77.7222C58.5311 77.7222 59.4742 76.7813 59.4742 75.6206C59.4742 74.4599 58.5311 73.5189 57.3678 73.5189C56.2045 73.5189 55.2615 74.4599 55.2615 75.6206C55.2615 76.7813 56.2045 77.7222 57.3678 77.7222Z" fill="white"/>
<path d="M75.7897 77.7222C76.953 77.7222 77.896 76.7813 77.896 75.6206C77.896 74.4599 76.953 73.5189 75.7897 73.5189C74.6264 73.5189 73.6833 74.4599 73.6833 75.6206C73.6833 76.7813 74.6264 77.7222 75.7897 77.7222Z" fill="white"/>
<path d="M94.2102 77.7222C95.3735 77.7222 96.3166 76.7813 96.3166 75.6206C96.3166 74.4599 95.3735 73.5189 94.2102 73.5189C93.0469 73.5189 92.1039 74.4599 92.1039 75.6206C92.1039 76.7813 93.0469 77.7222 94.2102 77.7222Z" fill="white"/>
<path d="M112.631 77.7222C113.794 77.7222 114.737 76.7813 114.737 75.6206C114.737 74.4599 113.794 73.5189 112.631 73.5189C111.467 73.5189 110.524 74.4599 110.524 75.6206C110.524 76.7813 111.467 77.7222 112.631 77.7222Z" fill="white"/>
<path d="M131.051 77.7222C132.215 77.7222 133.158 76.7813 133.158 75.6206C133.158 74.4599 132.215 73.5189 131.051 73.5189C129.888 73.5189 128.945 74.4599 128.945 75.6206C128.945 76.7813 129.888 77.7222 131.051 77.7222Z" fill="white"/>
<path d="M2.10634 96.1017C3.26964 96.1017 4.21268 95.1607 4.21268 94C4.21268 92.8393 3.26964 91.8984 2.10634 91.8984C0.94304 91.8984 0 92.8393 0 94C0 95.1607 0.94304 96.1017 2.10634 96.1017Z" fill="white"/>
<path d="M20.5269 96.1017C21.6902 96.1017 22.6332 95.1607 22.6332 94C22.6332 92.8393 21.6902 91.8984 20.5269 91.8984C19.3636 91.8984 18.4205 92.8393 18.4205 94C18.4205 95.1607 19.3636 96.1017 20.5269 96.1017Z" fill="white"/>
<path d="M38.9474 96.1017C40.1107 96.1017 41.0537 95.1607 41.0537 94C41.0537 92.8393 40.1107 91.8984 38.9474 91.8984C37.7841 91.8984 36.8411 92.8393 36.8411 94C36.8411 95.1607 37.7841 96.1017 38.9474 96.1017Z" fill="white"/>
<path d="M57.3678 96.1017C58.5311 96.1017 59.4742 95.1607 59.4742 94C59.4742 92.8393 58.5311 91.8984 57.3678 91.8984C56.2045 91.8984 55.2615 92.8393 55.2615 94C55.2615 95.1607 56.2045 96.1017 57.3678 96.1017Z" fill="white"/>
<path d="M75.7897 96.1017C76.953 96.1017 77.896 95.1607 77.896 94C77.896 92.8393 76.953 91.8984 75.7897 91.8984C74.6264 91.8984 73.6833 92.8393 73.6833 94C73.6833 95.1607 74.6264 96.1017 75.7897 96.1017Z" fill="white"/>
<path d="M94.2102 96.1017C95.3735 96.1017 96.3166 95.1607 96.3166 94C96.3166 92.8393 95.3735 91.8984 94.2102 91.8984C93.0469 91.8984 92.1039 92.8393 92.1039 94C92.1039 95.1607 93.0469 96.1017 94.2102 96.1017Z" fill="white"/>
<path d="M112.631 96.1017C113.794 96.1017 114.737 95.1607 114.737 94C114.737 92.8393 113.794 91.8984 112.631 91.8984C111.467 91.8984 110.524 92.8393 110.524 94C110.524 95.1607 111.467 96.1017 112.631 96.1017Z" fill="white"/>
<path d="M131.051 96.1017C132.215 96.1017 133.158 95.1607 133.158 94C133.158 92.8393 132.215 91.8984 131.051 91.8984C129.888 91.8984 128.945 92.8393 128.945 94C128.945 95.1607 129.888 96.1017 131.051 96.1017Z" fill="white"/>
<path d="M2.10634 114.481C3.26964 114.481 4.21268 113.54 4.21268 112.379C4.21268 111.219 3.26964 110.278 2.10634 110.278C0.94304 110.278 0 111.219 0 112.379C0 113.54 0.94304 114.481 2.10634 114.481Z" fill="white"/>
<path d="M20.5269 114.481C21.6902 114.481 22.6332 113.54 22.6332 112.379C22.6332 111.219 21.6902 110.278 20.5269 110.278C19.3636 110.278 18.4205 111.219 18.4205 112.379C18.4205 113.54 19.3636 114.481 20.5269 114.481Z" fill="white"/>
<path d="M38.9474 114.481C40.1107 114.481 41.0537 113.54 41.0537 112.379C41.0537 111.219 40.1107 110.278 38.9474 110.278C37.7841 110.278 36.8411 111.219 36.8411 112.379C36.8411 113.54 37.7841 114.481 38.9474 114.481Z" fill="white"/>
<path d="M57.3678 114.481C58.5311 114.481 59.4742 113.54 59.4742 112.379C59.4742 111.219 58.5311 110.278 57.3678 110.278C56.2045 110.278 55.2615 111.219 55.2615 112.379C55.2615 113.54 56.2045 114.481 57.3678 114.481Z" fill="white"/>
<path d="M75.7897 114.481C76.953 114.481 77.896 113.54 77.896 112.379C77.896 111.219 76.953 110.278 75.7897 110.278C74.6264 110.278 73.6833 111.219 73.6833 112.379C73.6833 113.54 74.6264 114.481 75.7897 114.481Z" fill="white"/>
<path d="M94.2102 114.481C95.3735 114.481 96.3166 113.54 96.3166 112.379C96.3166 111.219 95.3735 110.278 94.2102 110.278C93.0469 110.278 92.1039 111.219 92.1039 112.379C92.1039 113.54 93.0469 114.481 94.2102 114.481Z" fill="white"/>
<path d="M112.631 114.481C113.794 114.481 114.737 113.54 114.737 112.379C114.737 111.219 113.794 110.278 112.631 110.278C111.467 110.278 110.524 111.219 110.524 112.379C110.524 113.54 111.467 114.481 112.631 114.481Z" fill="white"/>
<path d="M131.051 114.481C132.215 114.481 133.158 113.54 133.158 112.379C133.158 111.219 132.215 110.278 131.051 110.278C129.888 110.278 128.945 111.219 128.945 112.379C128.945 113.54 129.888 114.481 131.051 114.481Z" fill="white"/>
<path d="M2.10634 132.86C3.26964 132.86 4.21268 131.92 4.21268 130.759C4.21268 129.598 3.26964 128.657 2.10634 128.657C0.94304 128.657 0 129.598 0 130.759C0 131.92 0.94304 132.86 2.10634 132.86Z" fill="white"/>
<path d="M20.5269 132.86C21.6902 132.86 22.6332 131.92 22.6332 130.759C22.6332 129.598 21.6902 128.657 20.5269 128.657C19.3636 128.657 18.4205 129.598 18.4205 130.759C18.4205 131.92 19.3636 132.86 20.5269 132.86Z" fill="white"/>
<path d="M38.9474 132.86C40.1107 132.86 41.0537 131.92 41.0537 130.759C41.0537 129.598 40.1107 128.657 38.9474 128.657C37.7841 128.657 36.8411 129.598 36.8411 130.759C36.8411 131.92 37.7841 132.86 38.9474 132.86Z" fill="white"/>
<path d="M57.3678 132.86C58.5311 132.86 59.4742 131.92 59.4742 130.759C59.4742 129.598 58.5311 128.657 57.3678 128.657C56.2045 128.657 55.2615 129.598 55.2615 130.759C55.2615 131.92 56.2045 132.86 57.3678 132.86Z" fill="white"/>
<path d="M75.7897 132.86C76.953 132.86 77.896 131.92 77.896 130.759C77.896 129.598 76.953 128.657 75.7897 128.657C74.6264 128.657 73.6833 129.598 73.6833 130.759C73.6833 131.92 74.6264 132.86 75.7897 132.86Z" fill="white"/>
<path d="M94.2102 132.86C95.3735 132.86 96.3166 131.92 96.3166 130.759C96.3166 129.598 95.3735 128.657 94.2102 128.657C93.0469 128.657 92.1039 129.598 92.1039 130.759C92.1039 131.92 93.0469 132.86 94.2102 132.86Z" fill="white"/>
<path d="M112.631 132.86C113.794 132.86 114.737 131.92 114.737 130.759C114.737 129.598 113.794 128.657 112.631 128.657C111.467 128.657 110.524 129.598 110.524 130.759C110.524 131.92 111.467 132.86 112.631 132.86Z" fill="white"/>
<path d="M131.051 132.86C132.215 132.86 133.158 131.92 133.158 130.759C133.158 129.598 132.215 128.657 131.051 128.657C129.888 128.657 128.945 129.598 128.945 130.759C128.945 131.92 129.888 132.86 131.051 132.86Z" fill="white"/>
<path d="M2.10634 151.241C3.26964 151.241 4.21268 150.3 4.21268 149.14C4.21268 147.979 3.26964 147.038 2.10634 147.038C0.94304 147.038 0 147.979 0 149.14C0 150.3 0.94304 151.241 2.10634 151.241Z" fill="white"/>
<path d="M20.5269 151.241C21.6902 151.241 22.6332 150.3 22.6332 149.14C22.6332 147.979 21.6902 147.038 20.5269 147.038C19.3636 147.038 18.4205 147.979 18.4205 149.14C18.4205 150.3 19.3636 151.241 20.5269 151.241Z" fill="white"/>
<path d="M38.9474 151.241C40.1107 151.241 41.0537 150.3 41.0537 149.14C41.0537 147.979 40.1107 147.038 38.9474 147.038C37.7841 147.038 36.8411 147.979 36.8411 149.14C36.8411 150.3 37.7841 151.241 38.9474 151.241Z" fill="white"/>
<path d="M57.3678 151.241C58.5311 151.241 59.4742 150.3 59.4742 149.14C59.4742 147.979 58.5311 147.038 57.3678 147.038C56.2045 147.038 55.2615 147.979 55.2615 149.14C55.2615 150.3 56.2045 151.241 57.3678 151.241Z" fill="white"/>
<path d="M75.7897 151.241C76.953 151.241 77.896 150.3 77.896 149.14C77.896 147.979 76.953 147.038 75.7897 147.038C74.6264 147.038 73.6833 147.979 73.6833 149.14C73.6833 150.3 74.6264 151.241 75.7897 151.241Z" fill="white"/>
<path d="M94.2102 151.241C95.3735 151.241 96.3166 150.3 96.3166 149.14C96.3166 147.979 95.3735 147.038 94.2102 147.038C93.0469 147.038 92.1039 147.979 92.1039 149.14C92.1039 150.3 93.0469 151.241 94.2102 151.241Z" fill="white"/>
<path d="M112.631 151.241C113.794 151.241 114.737 150.3 114.737 149.14C114.737 147.979 113.794 147.038 112.631 147.038C111.467 147.038 110.524 147.979 110.524 149.14C110.524 150.3 111.467 151.241 112.631 151.241Z" fill="white"/>
<path d="M131.051 151.241C132.215 151.241 133.158 150.3 133.158 149.14C133.158 147.979 132.215 147.038 131.051 147.038C129.888 147.038 128.945 147.979 128.945 149.14C128.945 150.3 129.888 151.241 131.051 151.241Z" fill="white"/>
<path d="M2.10634 169.621C3.26964 169.621 4.21268 168.68 4.21268 167.519C4.21268 166.358 3.26964 165.417 2.10634 165.417C0.94304 165.417 0 166.358 0 167.519C0 168.68 0.94304 169.621 2.10634 169.621Z" fill="white"/>
<path d="M20.5269 169.621C21.6902 169.621 22.6332 168.68 22.6332 167.519C22.6332 166.358 21.6902 165.417 20.5269 165.417C19.3636 165.417 18.4205 166.358 18.4205 167.519C18.4205 168.68 19.3636 169.621 20.5269 169.621Z" fill="white"/>
<path d="M38.9474 169.621C40.1107 169.621 41.0537 168.68 41.0537 167.519C41.0537 166.358 40.1107 165.417 38.9474 165.417C37.7841 165.417 36.8411 166.358 36.8411 167.519C36.8411 168.68 37.7841 169.621 38.9474 169.621Z" fill="white"/>
<path d="M57.3678 169.621C58.5311 169.621 59.4742 168.68 59.4742 167.519C59.4742 166.358 58.5311 165.417 57.3678 165.417C56.2045 165.417 55.2615 166.358 55.2615 167.519C55.2615 168.68 56.2045 169.621 57.3678 169.621Z" fill="white"/>
<path d="M75.7897 169.621C76.953 169.621 77.896 168.68 77.896 167.519C77.896 166.358 76.953 165.417 75.7897 165.417C74.6264 165.417 73.6833 166.358 73.6833 167.519C73.6833 168.68 74.6264 169.621 75.7897 169.621Z" fill="white"/>
<path d="M94.2102 169.621C95.3735 169.621 96.3166 168.68 96.3166 167.519C96.3166 166.358 95.3735 165.417 94.2102 165.417C93.0469 165.417 92.1039 166.358 92.1039 167.519C92.1039 168.68 93.0469 169.621 94.2102 169.621Z" fill="white"/>
<path d="M112.631 169.621C113.794 169.621 114.737 168.68 114.737 167.519C114.737 166.358 113.794 165.417 112.631 165.417C111.467 165.417 110.524 166.358 110.524 167.519C110.524 168.68 111.467 169.621 112.631 169.621Z" fill="white"/>
<path d="M131.051 169.621C132.215 169.621 133.158 168.68 133.158 167.519C133.158 166.358 132.215 165.417 131.051 165.417C129.888 165.417 128.945 166.358 128.945 167.519C128.945 168.68 129.888 169.621 131.051 169.621Z" fill="white"/>
<path d="M2.10634 188C3.26964 188 4.21268 187.059 4.21268 185.898C4.21268 184.738 3.26964 183.797 2.10634 183.797C0.94304 183.797 0 184.738 0 185.898C0 187.059 0.94304 188 2.10634 188Z" fill="white"/>
<path d="M20.5269 188C21.6902 188 22.6332 187.059 22.6332 185.898C22.6332 184.738 21.6902 183.797 20.5269 183.797C19.3636 183.797 18.4205 184.738 18.4205 185.898C18.4205 187.059 19.3636 188 20.5269 188Z" fill="white"/>
<path d="M38.9474 188C40.1107 188 41.0537 187.059 41.0537 185.898C41.0537 184.738 40.1107 183.797 38.9474 183.797C37.7841 183.797 36.8411 184.738 36.8411 185.898C36.8411 187.059 37.7841 188 38.9474 188Z" fill="white"/>
<path d="M57.3678 188C58.5311 188 59.4742 187.059 59.4742 185.898C59.4742 184.738 58.5311 183.797 57.3678 183.797C56.2045 183.797 55.2615 184.738 55.2615 185.898C55.2615 187.059 56.2045 188 57.3678 188Z" fill="white"/>
<path d="M75.7897 188C76.953 188 77.896 187.059 77.896 185.898C77.896 184.738 76.953 183.797 75.7897 183.797C74.6264 183.797 73.6833 184.738 73.6833 185.898C73.6833 187.059 74.6264 188 75.7897 188Z" fill="white"/>
<path d="M94.2102 188C95.3735 188 96.3166 187.059 96.3166 185.898C96.3166 184.738 95.3735 183.797 94.2102 183.797C93.0469 183.797 92.1039 184.738 92.1039 185.898C92.1039 187.059 93.0469 188 94.2102 188Z" fill="white"/>
<path d="M112.631 188C113.794 188 114.737 187.059 114.737 185.898C114.737 184.738 113.794 183.797 112.631 183.797C111.467 183.797 110.524 184.738 110.524 185.898C110.524 187.059 111.467 188 112.631 188Z" fill="white"/>
<path d="M131.051 188C132.215 188 133.158 187.059 133.158 185.898C133.158 184.738 132.215 183.797 131.051 183.797C129.888 183.797 128.945 184.738 128.945 185.898C128.945 187.059 129.888 188 131.051 188Z" fill="white"/>
</g>
</svg>
