<svg width="167" height="188" viewBox="0 0 167 188" fill="none" xmlns="http://www.w3.org/2000/svg">
<g opacity="0.5">
<path d="M2.06917 4.20327C3.21194 4.20327 4.13834 3.26234 4.13834 2.10164C4.13834 0.940935 3.21194 0 2.06917 0C0.926398 0 0 0.940935 0 2.10164C0 3.26234 0.926398 4.20327 2.06917 4.20327Z" fill="#EE2737"/>
<path d="M20.1646 4.20327C21.3074 4.20327 22.2338 3.26234 22.2338 2.10164C22.2338 0.940935 21.3074 0 20.1646 0C19.0219 0 18.0955 0.940935 18.0955 2.10164C18.0955 3.26234 19.0219 4.20327 20.1646 4.20327Z" fill="#EE2737"/>
<path d="M38.2601 4.20327C39.4029 4.20327 40.3293 3.26234 40.3293 2.10164C40.3293 0.940935 39.4029 0 38.2601 0C37.1173 0 36.1909 0.940935 36.1909 2.10164C36.1909 3.26234 37.1173 4.20327 38.2601 4.20327Z" fill="#EE2737"/>
<path d="M56.3555 4.20327C57.4983 4.20327 58.4247 3.26234 58.4247 2.10164C58.4247 0.940935 57.4983 0 56.3555 0C55.2128 0 54.2864 0.940935 54.2864 2.10164C54.2864 3.26234 55.2128 4.20327 56.3555 4.20327Z" fill="#EE2737"/>
<path d="M74.4522 4.20327C75.595 4.20327 76.5214 3.26234 76.5214 2.10164C76.5214 0.940935 75.595 0 74.4522 0C73.3095 0 72.3831 0.940935 72.3831 2.10164C72.3831 3.26234 73.3095 4.20327 74.4522 4.20327Z" fill="#EE2737"/>
<path d="M92.5477 4.20327C93.6905 4.20327 94.6169 3.26234 94.6169 2.10164C94.6169 0.940935 93.6905 0 92.5477 0C91.4049 0 90.4785 0.940935 90.4785 2.10164C90.4785 3.26234 91.4049 4.20327 92.5477 4.20327Z" fill="#EE2737"/>
<path d="M110.643 4.20327C111.786 4.20327 112.712 3.26234 112.712 2.10164C112.712 0.940935 111.786 0 110.643 0C109.5 0 108.574 0.940935 108.574 2.10164C108.574 3.26234 109.5 4.20327 110.643 4.20327Z" fill="#EE2737"/>
<path d="M128.739 4.20327C129.881 4.20327 130.808 3.26234 130.808 2.10164C130.808 0.940935 129.881 0 128.739 0C127.596 0 126.669 0.940935 126.669 2.10164C126.669 3.26234 127.596 4.20327 128.739 4.20327Z" fill="#EE2737"/>
<path d="M146.834 4.20327C147.977 4.20327 148.903 3.26234 148.903 2.10164C148.903 0.940935 147.977 0 146.834 0C145.691 0 144.765 0.940935 144.765 2.10164C144.765 3.26234 145.691 4.20327 146.834 4.20327Z" fill="#EE2737"/>
<path d="M164.93 4.20327C166.072 4.20327 166.999 3.26234 166.999 2.10164C166.999 0.940935 166.072 0 164.93 0C163.787 0 162.86 0.940935 162.86 2.10164C162.86 3.26234 163.787 4.20327 164.93 4.20327Z" fill="#EE2737"/>
<path d="M2.06917 22.584C3.21194 22.584 4.13834 21.6431 4.13834 20.4824C4.13834 19.3217 3.21194 18.3807 2.06917 18.3807C0.926398 18.3807 0 19.3217 0 20.4824C0 21.6431 0.926398 22.584 2.06917 22.584Z" fill="#EE2737"/>
<path d="M20.1646 22.584C21.3074 22.584 22.2338 21.6431 22.2338 20.4824C22.2338 19.3217 21.3074 18.3807 20.1646 18.3807C19.0219 18.3807 18.0955 19.3217 18.0955 20.4824C18.0955 21.6431 19.0219 22.584 20.1646 22.584Z" fill="#EE2737"/>
<path d="M38.2601 22.584C39.4029 22.584 40.3293 21.6431 40.3293 20.4824C40.3293 19.3217 39.4029 18.3807 38.2601 18.3807C37.1173 18.3807 36.1909 19.3217 36.1909 20.4824C36.1909 21.6431 37.1173 22.584 38.2601 22.584Z" fill="#EE2737"/>
<path d="M56.3555 22.584C57.4983 22.584 58.4247 21.6431 58.4247 20.4824C58.4247 19.3217 57.4983 18.3807 56.3555 18.3807C55.2128 18.3807 54.2864 19.3217 54.2864 20.4824C54.2864 21.6431 55.2128 22.584 56.3555 22.584Z" fill="#EE2737"/>
<path d="M74.4522 22.584C75.595 22.584 76.5214 21.6431 76.5214 20.4824C76.5214 19.3217 75.595 18.3807 74.4522 18.3807C73.3095 18.3807 72.3831 19.3217 72.3831 20.4824C72.3831 21.6431 73.3095 22.584 74.4522 22.584Z" fill="#EE2737"/>
<path d="M92.5477 22.584C93.6905 22.584 94.6169 21.6431 94.6169 20.4824C94.6169 19.3217 93.6905 18.3807 92.5477 18.3807C91.4049 18.3807 90.4785 19.3217 90.4785 20.4824C90.4785 21.6431 91.4049 22.584 92.5477 22.584Z" fill="#EE2737"/>
<path d="M110.643 22.584C111.786 22.584 112.712 21.6431 112.712 20.4824C112.712 19.3217 111.786 18.3807 110.643 18.3807C109.5 18.3807 108.574 19.3217 108.574 20.4824C108.574 21.6431 109.5 22.584 110.643 22.584Z" fill="#EE2737"/>
<path d="M128.739 22.584C129.881 22.584 130.808 21.6431 130.808 20.4824C130.808 19.3217 129.881 18.3807 128.739 18.3807C127.596 18.3807 126.669 19.3217 126.669 20.4824C126.669 21.6431 127.596 22.584 128.739 22.584Z" fill="#EE2737"/>
<path d="M146.834 22.584C147.977 22.584 148.903 21.6431 148.903 20.4824C148.903 19.3217 147.977 18.3807 146.834 18.3807C145.691 18.3807 144.765 19.3217 144.765 20.4824C144.765 21.6431 145.691 22.584 146.834 22.584Z" fill="#EE2737"/>
<path d="M164.93 22.584C166.072 22.584 166.999 21.6431 166.999 20.4824C166.999 19.3217 166.072 18.3807 164.93 18.3807C163.787 18.3807 162.86 19.3217 162.86 20.4824C162.86 21.6431 163.787 22.584 164.93 22.584Z" fill="#EE2737"/>
<path d="M2.06917 40.963C3.21194 40.963 4.13834 40.0221 4.13834 38.8614C4.13834 37.7007 3.21194 36.7598 2.06917 36.7598C0.926398 36.7598 0 37.7007 0 38.8614C0 40.0221 0.926398 40.963 2.06917 40.963Z" fill="#EE2737"/>
<path d="M20.1646 40.963C21.3074 40.963 22.2338 40.0221 22.2338 38.8614C22.2338 37.7007 21.3074 36.7598 20.1646 36.7598C19.0219 36.7598 18.0955 37.7007 18.0955 38.8614C18.0955 40.0221 19.0219 40.963 20.1646 40.963Z" fill="#EE2737"/>
<path d="M38.2601 40.963C39.4029 40.963 40.3293 40.0221 40.3293 38.8614C40.3293 37.7007 39.4029 36.7598 38.2601 36.7598C37.1173 36.7598 36.1909 37.7007 36.1909 38.8614C36.1909 40.0221 37.1173 40.963 38.2601 40.963Z" fill="#EE2737"/>
<path d="M56.3555 40.963C57.4983 40.963 58.4247 40.0221 58.4247 38.8614C58.4247 37.7007 57.4983 36.7598 56.3555 36.7598C55.2128 36.7598 54.2864 37.7007 54.2864 38.8614C54.2864 40.0221 55.2128 40.963 56.3555 40.963Z" fill="#EE2737"/>
<path d="M74.4522 40.963C75.595 40.963 76.5214 40.0221 76.5214 38.8614C76.5214 37.7007 75.595 36.7598 74.4522 36.7598C73.3095 36.7598 72.3831 37.7007 72.3831 38.8614C72.3831 40.0221 73.3095 40.963 74.4522 40.963Z" fill="#EE2737"/>
<path d="M92.5477 40.963C93.6905 40.963 94.6169 40.0221 94.6169 38.8614C94.6169 37.7007 93.6905 36.7598 92.5477 36.7598C91.4049 36.7598 90.4785 37.7007 90.4785 38.8614C90.4785 40.0221 91.4049 40.963 92.5477 40.963Z" fill="#EE2737"/>
<path d="M110.643 40.963C111.786 40.963 112.712 40.0221 112.712 38.8614C112.712 37.7007 111.786 36.7598 110.643 36.7598C109.5 36.7598 108.574 37.7007 108.574 38.8614C108.574 40.0221 109.5 40.963 110.643 40.963Z" fill="#EE2737"/>
<path d="M128.739 40.963C129.881 40.963 130.808 40.0221 130.808 38.8614C130.808 37.7007 129.881 36.7598 128.739 36.7598C127.596 36.7598 126.669 37.7007 126.669 38.8614C126.669 40.0221 127.596 40.963 128.739 40.963Z" fill="#EE2737"/>
<path d="M146.834 40.963C147.977 40.963 148.903 40.0221 148.903 38.8614C148.903 37.7007 147.977 36.7598 146.834 36.7598C145.691 36.7598 144.765 37.7007 144.765 38.8614C144.765 40.0221 145.691 40.963 146.834 40.963Z" fill="#EE2737"/>
<path d="M164.93 40.963C166.072 40.963 166.999 40.0221 166.999 38.8614C166.999 37.7007 166.072 36.7598 164.93 36.7598C163.787 36.7598 162.86 37.7007 162.86 38.8614C162.86 40.0221 163.787 40.963 164.93 40.963Z" fill="#EE2737"/>
<path d="M2.06917 59.3428C3.21194 59.3428 4.13834 58.4019 4.13834 57.2412C4.13834 56.0805 3.21194 55.1395 2.06917 55.1395C0.926398 55.1395 0 56.0805 0 57.2412C0 58.4019 0.926398 59.3428 2.06917 59.3428Z" fill="#EE2737"/>
<path d="M20.1646 59.3428C21.3074 59.3428 22.2338 58.4019 22.2338 57.2412C22.2338 56.0805 21.3074 55.1395 20.1646 55.1395C19.0219 55.1395 18.0955 56.0805 18.0955 57.2412C18.0955 58.4019 19.0219 59.3428 20.1646 59.3428Z" fill="#EE2737"/>
<path d="M38.2601 59.3428C39.4029 59.3428 40.3293 58.4019 40.3293 57.2412C40.3293 56.0805 39.4029 55.1395 38.2601 55.1395C37.1173 55.1395 36.1909 56.0805 36.1909 57.2412C36.1909 58.4019 37.1173 59.3428 38.2601 59.3428Z" fill="#EE2737"/>
<path d="M56.3555 59.3428C57.4983 59.3428 58.4247 58.4019 58.4247 57.2412C58.4247 56.0805 57.4983 55.1395 56.3555 55.1395C55.2128 55.1395 54.2864 56.0805 54.2864 57.2412C54.2864 58.4019 55.2128 59.3428 56.3555 59.3428Z" fill="#EE2737"/>
<path d="M74.4522 59.3428C75.595 59.3428 76.5214 58.4019 76.5214 57.2412C76.5214 56.0805 75.595 55.1395 74.4522 55.1395C73.3095 55.1395 72.3831 56.0805 72.3831 57.2412C72.3831 58.4019 73.3095 59.3428 74.4522 59.3428Z" fill="#EE2737"/>
<path d="M92.5477 59.3428C93.6905 59.3428 94.6169 58.4019 94.6169 57.2412C94.6169 56.0805 93.6905 55.1395 92.5477 55.1395C91.4049 55.1395 90.4785 56.0805 90.4785 57.2412C90.4785 58.4019 91.4049 59.3428 92.5477 59.3428Z" fill="#EE2737"/>
<path d="M110.643 59.3428C111.786 59.3428 112.712 58.4019 112.712 57.2412C112.712 56.0805 111.786 55.1395 110.643 55.1395C109.5 55.1395 108.574 56.0805 108.574 57.2412C108.574 58.4019 109.5 59.3428 110.643 59.3428Z" fill="#EE2737"/>
<path d="M128.739 59.3428C129.881 59.3428 130.808 58.4019 130.808 57.2412C130.808 56.0805 129.881 55.1395 128.739 55.1395C127.596 55.1395 126.669 56.0805 126.669 57.2412C126.669 58.4019 127.596 59.3428 128.739 59.3428Z" fill="#EE2737"/>
<path d="M146.834 59.3428C147.977 59.3428 148.903 58.4019 148.903 57.2412C148.903 56.0805 147.977 55.1395 146.834 55.1395C145.691 55.1395 144.765 56.0805 144.765 57.2412C144.765 58.4019 145.691 59.3428 146.834 59.3428Z" fill="#EE2737"/>
<path d="M164.93 59.3428C166.072 59.3428 166.999 58.4019 166.999 57.2412C166.999 56.0805 166.072 55.1395 164.93 55.1395C163.787 55.1395 162.86 56.0805 162.86 57.2412C162.86 58.4019 163.787 59.3428 164.93 59.3428Z" fill="#EE2737"/>
<path d="M2.06917 77.7218C3.21194 77.7218 4.13834 76.7809 4.13834 75.6202C4.13834 74.4595 3.21194 73.5186 2.06917 73.5186C0.926398 73.5186 0 74.4595 0 75.6202C0 76.7809 0.926398 77.7218 2.06917 77.7218Z" fill="#EE2737"/>
<path d="M20.1646 77.7218C21.3074 77.7218 22.2338 76.7809 22.2338 75.6202C22.2338 74.4595 21.3074 73.5186 20.1646 73.5186C19.0219 73.5186 18.0955 74.4595 18.0955 75.6202C18.0955 76.7809 19.0219 77.7218 20.1646 77.7218Z" fill="#EE2737"/>
<path d="M38.2601 77.7218C39.4029 77.7218 40.3293 76.7809 40.3293 75.6202C40.3293 74.4595 39.4029 73.5186 38.2601 73.5186C37.1173 73.5186 36.1909 74.4595 36.1909 75.6202C36.1909 76.7809 37.1173 77.7218 38.2601 77.7218Z" fill="#EE2737"/>
<path d="M56.3555 77.7218C57.4983 77.7218 58.4247 76.7809 58.4247 75.6202C58.4247 74.4595 57.4983 73.5186 56.3555 73.5186C55.2128 73.5186 54.2864 74.4595 54.2864 75.6202C54.2864 76.7809 55.2128 77.7218 56.3555 77.7218Z" fill="#EE2737"/>
<path d="M74.4522 77.7218C75.595 77.7218 76.5214 76.7809 76.5214 75.6202C76.5214 74.4595 75.595 73.5186 74.4522 73.5186C73.3095 73.5186 72.3831 74.4595 72.3831 75.6202C72.3831 76.7809 73.3095 77.7218 74.4522 77.7218Z" fill="#EE2737"/>
<path d="M92.5477 77.7218C93.6905 77.7218 94.6169 76.7809 94.6169 75.6202C94.6169 74.4595 93.6905 73.5186 92.5477 73.5186C91.4049 73.5186 90.4785 74.4595 90.4785 75.6202C90.4785 76.7809 91.4049 77.7218 92.5477 77.7218Z" fill="#EE2737"/>
<path d="M110.643 77.7218C111.786 77.7218 112.712 76.7809 112.712 75.6202C112.712 74.4595 111.786 73.5186 110.643 73.5186C109.5 73.5186 108.574 74.4595 108.574 75.6202C108.574 76.7809 109.5 77.7218 110.643 77.7218Z" fill="#EE2737"/>
<path d="M128.739 77.7218C129.881 77.7218 130.808 76.7809 130.808 75.6202C130.808 74.4595 129.881 73.5186 128.739 73.5186C127.596 73.5186 126.669 74.4595 126.669 75.6202C126.669 76.7809 127.596 77.7218 128.739 77.7218Z" fill="#EE2737"/>
<path d="M146.834 77.7218C147.977 77.7218 148.903 76.7809 148.903 75.6202C148.903 74.4595 147.977 73.5186 146.834 73.5186C145.691 73.5186 144.765 74.4595 144.765 75.6202C144.765 76.7809 145.691 77.7218 146.834 77.7218Z" fill="#EE2737"/>
<path d="M164.93 77.7218C166.072 77.7218 166.999 76.7809 166.999 75.6202C166.999 74.4595 166.072 73.5186 164.93 73.5186C163.787 73.5186 162.86 74.4595 162.86 75.6202C162.86 76.7809 163.787 77.7218 164.93 77.7218Z" fill="#EE2737"/>
<path d="M2.06917 96.1016C3.21194 96.1016 4.13834 95.1607 4.13834 94C4.13834 92.8393 3.21194 91.8983 2.06917 91.8983C0.926398 91.8983 0 92.8393 0 94C0 95.1607 0.926398 96.1016 2.06917 96.1016Z" fill="#EE2737"/>
<path d="M20.1646 96.1016C21.3074 96.1016 22.2338 95.1607 22.2338 94C22.2338 92.8393 21.3074 91.8983 20.1646 91.8983C19.0219 91.8983 18.0955 92.8393 18.0955 94C18.0955 95.1607 19.0219 96.1016 20.1646 96.1016Z" fill="#EE2737"/>
<path d="M38.2601 96.1016C39.4029 96.1016 40.3293 95.1607 40.3293 94C40.3293 92.8393 39.4029 91.8983 38.2601 91.8983C37.1173 91.8983 36.1909 92.8393 36.1909 94C36.1909 95.1607 37.1173 96.1016 38.2601 96.1016Z" fill="#EE2737"/>
<path d="M56.3555 96.1016C57.4983 96.1016 58.4247 95.1607 58.4247 94C58.4247 92.8393 57.4983 91.8983 56.3555 91.8983C55.2128 91.8983 54.2864 92.8393 54.2864 94C54.2864 95.1607 55.2128 96.1016 56.3555 96.1016Z" fill="#EE2737"/>
<path d="M74.4522 96.1016C75.595 96.1016 76.5214 95.1607 76.5214 94C76.5214 92.8393 75.595 91.8983 74.4522 91.8983C73.3095 91.8983 72.3831 92.8393 72.3831 94C72.3831 95.1607 73.3095 96.1016 74.4522 96.1016Z" fill="#EE2737"/>
<path d="M92.5477 96.1016C93.6905 96.1016 94.6169 95.1607 94.6169 94C94.6169 92.8393 93.6905 91.8983 92.5477 91.8983C91.4049 91.8983 90.4785 92.8393 90.4785 94C90.4785 95.1607 91.4049 96.1016 92.5477 96.1016Z" fill="#EE2737"/>
<path d="M110.643 96.1016C111.786 96.1016 112.712 95.1607 112.712 94C112.712 92.8393 111.786 91.8983 110.643 91.8983C109.5 91.8983 108.574 92.8393 108.574 94C108.574 95.1607 109.5 96.1016 110.643 96.1016Z" fill="#EE2737"/>
<path d="M128.739 96.1016C129.881 96.1016 130.808 95.1607 130.808 94C130.808 92.8393 129.881 91.8983 128.739 91.8983C127.596 91.8983 126.669 92.8393 126.669 94C126.669 95.1607 127.596 96.1016 128.739 96.1016Z" fill="#EE2737"/>
<path d="M146.834 96.1016C147.977 96.1016 148.903 95.1607 148.903 94C148.903 92.8393 147.977 91.8983 146.834 91.8983C145.691 91.8983 144.765 92.8393 144.765 94C144.765 95.1607 145.691 96.1016 146.834 96.1016Z" fill="#EE2737"/>
<path d="M164.93 96.1016C166.072 96.1016 166.999 95.1607 166.999 94C166.999 92.8393 166.072 91.8983 164.93 91.8983C163.787 91.8983 162.86 92.8393 162.86 94C162.86 95.1607 163.787 96.1016 164.93 96.1016Z" fill="#EE2737"/>
<path d="M2.06917 114.481C3.21194 114.481 4.13834 113.54 4.13834 112.379C4.13834 111.218 3.21194 110.277 2.06917 110.277C0.926398 110.277 0 111.218 0 112.379C0 113.54 0.926398 114.481 2.06917 114.481Z" fill="#EE2737"/>
<path d="M20.1646 114.481C21.3074 114.481 22.2338 113.54 22.2338 112.379C22.2338 111.218 21.3074 110.277 20.1646 110.277C19.0219 110.277 18.0955 111.218 18.0955 112.379C18.0955 113.54 19.0219 114.481 20.1646 114.481Z" fill="#EE2737"/>
<path d="M38.2601 114.481C39.4029 114.481 40.3293 113.54 40.3293 112.379C40.3293 111.218 39.4029 110.277 38.2601 110.277C37.1173 110.277 36.1909 111.218 36.1909 112.379C36.1909 113.54 37.1173 114.481 38.2601 114.481Z" fill="#EE2737"/>
<path d="M56.3555 114.481C57.4983 114.481 58.4247 113.54 58.4247 112.379C58.4247 111.218 57.4983 110.277 56.3555 110.277C55.2128 110.277 54.2864 111.218 54.2864 112.379C54.2864 113.54 55.2128 114.481 56.3555 114.481Z" fill="#EE2737"/>
<path d="M74.4522 114.481C75.595 114.481 76.5214 113.54 76.5214 112.379C76.5214 111.218 75.595 110.277 74.4522 110.277C73.3095 110.277 72.3831 111.218 72.3831 112.379C72.3831 113.54 73.3095 114.481 74.4522 114.481Z" fill="#EE2737"/>
<path d="M92.5477 114.481C93.6905 114.481 94.6169 113.54 94.6169 112.379C94.6169 111.218 93.6905 110.277 92.5477 110.277C91.4049 110.277 90.4785 111.218 90.4785 112.379C90.4785 113.54 91.4049 114.481 92.5477 114.481Z" fill="#EE2737"/>
<path d="M110.643 114.481C111.786 114.481 112.712 113.54 112.712 112.379C112.712 111.218 111.786 110.277 110.643 110.277C109.5 110.277 108.574 111.218 108.574 112.379C108.574 113.54 109.5 114.481 110.643 114.481Z" fill="#EE2737"/>
<path d="M128.739 114.481C129.881 114.481 130.808 113.54 130.808 112.379C130.808 111.218 129.881 110.277 128.739 110.277C127.596 110.277 126.669 111.218 126.669 112.379C126.669 113.54 127.596 114.481 128.739 114.481Z" fill="#EE2737"/>
<path d="M146.834 114.481C147.977 114.481 148.903 113.54 148.903 112.379C148.903 111.218 147.977 110.277 146.834 110.277C145.691 110.277 144.765 111.218 144.765 112.379C144.765 113.54 145.691 114.481 146.834 114.481Z" fill="#EE2737"/>
<path d="M164.93 114.481C166.072 114.481 166.999 113.54 166.999 112.379C166.999 111.218 166.072 110.277 164.93 110.277C163.787 110.277 162.86 111.218 162.86 112.379C162.86 113.54 163.787 114.481 164.93 114.481Z" fill="#EE2737"/>
<path d="M2.06917 132.86C3.21194 132.86 4.13834 131.919 4.13834 130.759C4.13834 129.598 3.21194 128.657 2.06917 128.657C0.926398 128.657 0 129.598 0 130.759C0 131.919 0.926398 132.86 2.06917 132.86Z" fill="#EE2737"/>
<path d="M20.1646 132.86C21.3074 132.86 22.2338 131.919 22.2338 130.759C22.2338 129.598 21.3074 128.657 20.1646 128.657C19.0219 128.657 18.0955 129.598 18.0955 130.759C18.0955 131.919 19.0219 132.86 20.1646 132.86Z" fill="#EE2737"/>
<path d="M38.2601 132.86C39.4029 132.86 40.3293 131.919 40.3293 130.759C40.3293 129.598 39.4029 128.657 38.2601 128.657C37.1173 128.657 36.1909 129.598 36.1909 130.759C36.1909 131.919 37.1173 132.86 38.2601 132.86Z" fill="#EE2737"/>
<path d="M56.3555 132.86C57.4983 132.86 58.4247 131.919 58.4247 130.759C58.4247 129.598 57.4983 128.657 56.3555 128.657C55.2128 128.657 54.2864 129.598 54.2864 130.759C54.2864 131.919 55.2128 132.86 56.3555 132.86Z" fill="#EE2737"/>
<path d="M74.4522 132.86C75.595 132.86 76.5214 131.919 76.5214 130.759C76.5214 129.598 75.595 128.657 74.4522 128.657C73.3095 128.657 72.3831 129.598 72.3831 130.759C72.3831 131.919 73.3095 132.86 74.4522 132.86Z" fill="#EE2737"/>
<path d="M92.5477 132.86C93.6905 132.86 94.6169 131.919 94.6169 130.759C94.6169 129.598 93.6905 128.657 92.5477 128.657C91.4049 128.657 90.4785 129.598 90.4785 130.759C90.4785 131.919 91.4049 132.86 92.5477 132.86Z" fill="#EE2737"/>
<path d="M110.643 132.86C111.786 132.86 112.712 131.919 112.712 130.759C112.712 129.598 111.786 128.657 110.643 128.657C109.5 128.657 108.574 129.598 108.574 130.759C108.574 131.919 109.5 132.86 110.643 132.86Z" fill="#EE2737"/>
<path d="M128.739 132.86C129.881 132.86 130.808 131.919 130.808 130.759C130.808 129.598 129.881 128.657 128.739 128.657C127.596 128.657 126.669 129.598 126.669 130.759C126.669 131.919 127.596 132.86 128.739 132.86Z" fill="#EE2737"/>
<path d="M146.834 132.86C147.977 132.86 148.903 131.919 148.903 130.759C148.903 129.598 147.977 128.657 146.834 128.657C145.691 128.657 144.765 129.598 144.765 130.759C144.765 131.919 145.691 132.86 146.834 132.86Z" fill="#EE2737"/>
<path d="M164.93 132.86C166.072 132.86 166.999 131.919 166.999 130.759C166.999 129.598 166.072 128.657 164.93 128.657C163.787 128.657 162.86 129.598 162.86 130.759C162.86 131.919 163.787 132.86 164.93 132.86Z" fill="#EE2737"/>
<path d="M2.06917 151.241C3.21194 151.241 4.13834 150.3 4.13834 149.139C4.13834 147.979 3.21194 147.038 2.06917 147.038C0.926398 147.038 0 147.979 0 149.139C0 150.3 0.926398 151.241 2.06917 151.241Z" fill="#EE2737"/>
<path d="M20.1646 151.241C21.3074 151.241 22.2338 150.3 22.2338 149.139C22.2338 147.979 21.3074 147.038 20.1646 147.038C19.0219 147.038 18.0955 147.979 18.0955 149.139C18.0955 150.3 19.0219 151.241 20.1646 151.241Z" fill="#EE2737"/>
<path d="M38.2601 151.241C39.4029 151.241 40.3293 150.3 40.3293 149.139C40.3293 147.979 39.4029 147.038 38.2601 147.038C37.1173 147.038 36.1909 147.979 36.1909 149.139C36.1909 150.3 37.1173 151.241 38.2601 151.241Z" fill="#EE2737"/>
<path d="M56.3555 151.241C57.4983 151.241 58.4247 150.3 58.4247 149.139C58.4247 147.979 57.4983 147.038 56.3555 147.038C55.2128 147.038 54.2864 147.979 54.2864 149.139C54.2864 150.3 55.2128 151.241 56.3555 151.241Z" fill="#EE2737"/>
<path d="M74.4522 151.241C75.595 151.241 76.5214 150.3 76.5214 149.139C76.5214 147.979 75.595 147.038 74.4522 147.038C73.3095 147.038 72.3831 147.979 72.3831 149.139C72.3831 150.3 73.3095 151.241 74.4522 151.241Z" fill="#EE2737"/>
<path d="M92.5477 151.241C93.6905 151.241 94.6169 150.3 94.6169 149.139C94.6169 147.979 93.6905 147.038 92.5477 147.038C91.4049 147.038 90.4785 147.979 90.4785 149.139C90.4785 150.3 91.4049 151.241 92.5477 151.241Z" fill="#EE2737"/>
<path d="M110.643 151.241C111.786 151.241 112.712 150.3 112.712 149.139C112.712 147.979 111.786 147.038 110.643 147.038C109.5 147.038 108.574 147.979 108.574 149.139C108.574 150.3 109.5 151.241 110.643 151.241Z" fill="#EE2737"/>
<path d="M128.739 151.241C129.881 151.241 130.808 150.3 130.808 149.139C130.808 147.979 129.881 147.038 128.739 147.038C127.596 147.038 126.669 147.979 126.669 149.139C126.669 150.3 127.596 151.241 128.739 151.241Z" fill="#EE2737"/>
<path d="M146.834 151.241C147.977 151.241 148.903 150.3 148.903 149.139C148.903 147.979 147.977 147.038 146.834 147.038C145.691 147.038 144.765 147.979 144.765 149.139C144.765 150.3 145.691 151.241 146.834 151.241Z" fill="#EE2737"/>
<path d="M164.93 151.241C166.072 151.241 166.999 150.3 166.999 149.139C166.999 147.979 166.072 147.038 164.93 147.038C163.787 147.038 162.86 147.979 162.86 149.139C162.86 150.3 163.787 151.241 164.93 151.241Z" fill="#EE2737"/>
<path d="M2.06917 169.62C3.21194 169.62 4.13834 168.679 4.13834 167.519C4.13834 166.358 3.21194 165.417 2.06917 165.417C0.926398 165.417 0 166.358 0 167.519C0 168.679 0.926398 169.62 2.06917 169.62Z" fill="#EE2737"/>
<path d="M20.1646 169.62C21.3074 169.62 22.2338 168.679 22.2338 167.519C22.2338 166.358 21.3074 165.417 20.1646 165.417C19.0219 165.417 18.0955 166.358 18.0955 167.519C18.0955 168.679 19.0219 169.62 20.1646 169.62Z" fill="#EE2737"/>
<path d="M38.2601 169.62C39.4029 169.62 40.3293 168.679 40.3293 167.519C40.3293 166.358 39.4029 165.417 38.2601 165.417C37.1173 165.417 36.1909 166.358 36.1909 167.519C36.1909 168.679 37.1173 169.62 38.2601 169.62Z" fill="#EE2737"/>
<path d="M56.3555 169.62C57.4983 169.62 58.4247 168.679 58.4247 167.519C58.4247 166.358 57.4983 165.417 56.3555 165.417C55.2128 165.417 54.2864 166.358 54.2864 167.519C54.2864 168.679 55.2128 169.62 56.3555 169.62Z" fill="#EE2737"/>
<path d="M74.4522 169.62C75.595 169.62 76.5214 168.679 76.5214 167.519C76.5214 166.358 75.595 165.417 74.4522 165.417C73.3095 165.417 72.3831 166.358 72.3831 167.519C72.3831 168.679 73.3095 169.62 74.4522 169.62Z" fill="#EE2737"/>
<path d="M92.5477 169.62C93.6905 169.62 94.6169 168.679 94.6169 167.519C94.6169 166.358 93.6905 165.417 92.5477 165.417C91.4049 165.417 90.4785 166.358 90.4785 167.519C90.4785 168.679 91.4049 169.62 92.5477 169.62Z" fill="#EE2737"/>
<path d="M110.643 169.62C111.786 169.62 112.712 168.679 112.712 167.519C112.712 166.358 111.786 165.417 110.643 165.417C109.5 165.417 108.574 166.358 108.574 167.519C108.574 168.679 109.5 169.62 110.643 169.62Z" fill="#EE2737"/>
<path d="M128.739 169.62C129.881 169.62 130.808 168.679 130.808 167.519C130.808 166.358 129.881 165.417 128.739 165.417C127.596 165.417 126.669 166.358 126.669 167.519C126.669 168.679 127.596 169.62 128.739 169.62Z" fill="#EE2737"/>
<path d="M146.834 169.62C147.977 169.62 148.903 168.679 148.903 167.519C148.903 166.358 147.977 165.417 146.834 165.417C145.691 165.417 144.765 166.358 144.765 167.519C144.765 168.679 145.691 169.62 146.834 169.62Z" fill="#EE2737"/>
<path d="M164.93 169.62C166.072 169.62 166.999 168.679 166.999 167.519C166.999 166.358 166.072 165.417 164.93 165.417C163.787 165.417 162.86 166.358 162.86 167.519C162.86 168.679 163.787 169.62 164.93 169.62Z" fill="#EE2737"/>
<path d="M2.06917 188C3.21194 188 4.13834 187.059 4.13834 185.898C4.13834 184.738 3.21194 183.797 2.06917 183.797C0.926398 183.797 0 184.738 0 185.898C0 187.059 0.926398 188 2.06917 188Z" fill="#EE2737"/>
<path d="M20.1646 188C21.3074 188 22.2338 187.059 22.2338 185.898C22.2338 184.738 21.3074 183.797 20.1646 183.797C19.0219 183.797 18.0955 184.738 18.0955 185.898C18.0955 187.059 19.0219 188 20.1646 188Z" fill="#EE2737"/>
<path d="M38.2601 188C39.4029 188 40.3293 187.059 40.3293 185.898C40.3293 184.738 39.4029 183.797 38.2601 183.797C37.1173 183.797 36.1909 184.738 36.1909 185.898C36.1909 187.059 37.1173 188 38.2601 188Z" fill="#EE2737"/>
<path d="M56.3555 188C57.4983 188 58.4247 187.059 58.4247 185.898C58.4247 184.738 57.4983 183.797 56.3555 183.797C55.2128 183.797 54.2864 184.738 54.2864 185.898C54.2864 187.059 55.2128 188 56.3555 188Z" fill="#EE2737"/>
<path d="M74.4522 188C75.595 188 76.5214 187.059 76.5214 185.898C76.5214 184.738 75.595 183.797 74.4522 183.797C73.3095 183.797 72.3831 184.738 72.3831 185.898C72.3831 187.059 73.3095 188 74.4522 188Z" fill="#EE2737"/>
<path d="M92.5477 188C93.6905 188 94.6169 187.059 94.6169 185.898C94.6169 184.738 93.6905 183.797 92.5477 183.797C91.4049 183.797 90.4785 184.738 90.4785 185.898C90.4785 187.059 91.4049 188 92.5477 188Z" fill="#EE2737"/>
<path d="M110.643 188C111.786 188 112.712 187.059 112.712 185.898C112.712 184.738 111.786 183.797 110.643 183.797C109.5 183.797 108.574 184.738 108.574 185.898C108.574 187.059 109.5 188 110.643 188Z" fill="#EE2737"/>
<path d="M128.739 188C129.881 188 130.808 187.059 130.808 185.898C130.808 184.738 129.881 183.797 128.739 183.797C127.596 183.797 126.669 184.738 126.669 185.898C126.669 187.059 127.596 188 128.739 188Z" fill="#EE2737"/>
<path d="M146.834 188C147.977 188 148.903 187.059 148.903 185.898C148.903 184.738 147.977 183.797 146.834 183.797C145.691 183.797 144.765 184.738 144.765 185.898C144.765 187.059 145.691 188 146.834 188Z" fill="#EE2737"/>
<path d="M164.93 188C166.072 188 166.999 187.059 166.999 185.898C166.999 184.738 166.072 183.797 164.93 183.797C163.787 183.797 162.86 184.738 162.86 185.898C162.86 187.059 163.787 188 164.93 188Z" fill="#EE2737"/>
</g>
</svg>
