<svg width="138" height="138" viewBox="0 0 138 138" fill="none" xmlns="http://www.w3.org/2000/svg">
<path d="M69 138C107.108 138 138 107.805 138 70.5576C138 33.3103 107.108 3.11536 69 3.11536C30.8923 3.11536 0 33.3103 0 70.5576C0 107.805 30.8923 138 69 138Z" fill="#FCE8E3"/>
<path d="M109.179 65.151C114.057 37.3875 102.358 2.08602 70.193 0.0719335C59.9296 -0.570834 49.9034 3.11662 44.7266 10.2269C26.9747 17.0654 25.4827 47.5353 27.4667 58.0225C32.9031 86.7731 6.68387 81.8267 13.3428 108.817L68.146 105.866H70.2474L124.073 106.543C128.608 86.1787 106.969 87.5524 109.179 65.151Z" fill="#1A222D"/>
<path d="M85.1352 61.6749H52.8132V101.978H85.1352V61.6749Z" fill="#E2988F"/>
<path d="M128.303 105.034C113.09 98.7851 85.3291 94.0815 85.3291 94.0815C74.6701 102.847 61.1965 102.79 52.8131 94.0815C52.8131 94.0815 24.7088 98.1484 8.84448 103.582C20.1809 123.267 41.3222 136.83 65.8047 137.921C66.9011 137.954 67.9939 137.998 69.1014 137.998C94.2749 137.963 116.28 124.746 128.303 105.034Z" fill="#EE2737"/>
<path d="M97.5838 56.807C96.3786 56.807 95.4021 58.5058 95.4021 60.602C95.4021 62.6982 96.3786 64.397 97.5838 64.397C98.789 64.397 99.7656 62.6982 99.7656 60.602C99.7656 58.5058 98.7878 56.807 97.5838 56.807ZM97.5838 62.7345C96.7556 62.7345 96.0832 61.5662 96.0832 60.1235C96.0832 58.6809 96.7556 57.5114 97.5838 57.5114C98.4133 57.5114 99.0845 58.6809 99.0845 60.1235C99.0845 61.5662 98.4133 62.7345 97.5838 62.7345Z" fill="white"/>
<path d="M38.0762 60.602C38.0762 62.6982 39.0527 64.397 40.2579 64.397C41.4631 64.397 42.4397 62.6982 42.4397 60.602C42.4397 58.5058 41.4631 56.807 40.2579 56.807C39.0527 56.807 38.0762 58.5058 38.0762 60.602ZM38.756 60.1235C38.756 58.6809 39.4285 57.5114 40.2567 57.5114C41.0849 57.5114 41.7573 58.6809 41.7573 60.1235C41.7573 61.5662 41.0849 62.7345 40.2567 62.7345C39.4285 62.7345 38.756 61.5662 38.756 60.1235Z" fill="white"/>
<path d="M68.9348 12.8704C48.0988 12.8934 43.3595 28.147 43.7959 43.5022C43.7946 54.5742 43.7279 62.7321 44.7786 65.4711C45.828 68.2065 53.1322 84.6756 68.936 84.7034C84.7385 84.6756 92.0427 68.2065 93.0922 65.4711C94.1429 62.7321 94.0761 54.5742 94.0749 43.5022C94.51 28.147 89.7707 12.8946 68.9348 12.8704Z" fill="#E2988F"/>
<path d="M68.9371 85.1565C62.7417 85.1456 57.1544 82.6857 52.3262 77.8432L52.99 77.2113C57.6365 81.8714 63.0025 84.2407 68.9359 84.2515C74.7703 84.2407 80.0597 81.9475 84.6556 77.4336L85.3119 78.0728C80.5368 82.7618 75.0275 85.1456 68.9371 85.1565Z" fill="#C46966"/>
<path d="M44.7105 42.9767C44.7105 42.9767 40.5225 36.9502 36.2171 40.4745C31.9129 44.0001 36.1009 64.0129 44.7105 60.4885C53.32 56.963 44.7105 42.9767 44.7105 42.9767Z" fill="#E2988F"/>
<path d="M93.2378 42.9767C93.2378 42.9767 97.4258 36.9502 101.731 40.4745C106.035 44.0001 101.847 64.0129 93.2378 60.4885C84.6283 56.963 93.2378 42.9767 93.2378 42.9767Z" fill="#E2988F"/>
<path d="M44.0259 54.2197L43.1013 54.2867L43.5926 60.7585L44.5172 60.6915L44.0259 54.2197Z" fill="#C46966"/>
<path d="M93.952 53.5349L93.4067 60.688L94.3312 60.7553L94.8765 53.6022L93.952 53.5349Z" fill="#C46966"/>
<path d="M38.3593 50.8312C37.3717 47.6198 37.3618 45.387 38.3334 44.1945C39.0553 43.3065 40.0479 43.3597 40.0849 43.3621L40.0244 44.2658L40.054 43.8139L40.0293 44.2658C40.0046 44.267 39.4607 44.2465 39.0441 44.7745C38.6189 45.3109 38.08 46.7789 39.2469 50.569L38.3593 50.8312Z" fill="#C46966"/>
<path d="M99.9378 50.8312L99.049 50.5703C100.215 46.7801 99.6757 45.3133 99.2505 44.7757C98.8339 44.2477 98.2876 44.267 98.2653 44.267L98.2109 43.3621C98.2468 43.3597 99.2406 43.3065 99.9625 44.1945C100.933 45.387 100.925 47.6198 99.9378 50.8312Z" fill="#C46966"/>
<path d="M42.0886 61.5915C41.9378 61.5879 41.7858 61.5722 41.6387 61.5396C41.5991 61.5287 41.5694 61.4973 41.5336 61.4804C41.2691 62.2295 40.7981 62.7345 40.2567 62.7345C39.4273 62.7345 38.756 61.5662 38.756 60.1236C38.756 58.6882 39.4211 57.5247 40.2456 57.5138C40.7388 57.457 40.6102 56.7913 40.2456 56.8094C39.0465 56.8203 38.0762 58.513 38.0762 60.602C38.0762 62.6983 39.0527 64.397 40.2579 64.397C41.2654 64.397 42.1034 63.2033 42.3556 61.5903C42.2654 61.5903 42.1776 61.594 42.0886 61.5915Z" fill="white"/>
<path d="M97.5951 56.8094C97.2305 56.7913 97.1019 57.457 97.5951 57.5138C98.4196 57.5247 99.0847 58.6882 99.0847 60.1236C99.0847 61.5662 98.4122 62.7345 97.584 62.7345C97.1217 62.7345 96.7187 62.3563 96.4431 61.7824C96.364 61.8416 96.2898 61.9057 96.2058 61.9588C96.0228 62.0724 95.8312 62.1739 95.6421 62.279C95.9969 63.5295 96.7274 64.3958 97.584 64.3958C98.7892 64.3958 99.7658 62.6971 99.7658 60.6008C99.7658 58.513 98.7954 56.8203 97.5951 56.8094Z" fill="white"/>
<path d="M43.6622 41.7419C43.4706 30.9538 51.7068 25.3501 51.7068 25.3501C59.1235 38.0581 79.5701 42.3786 98.2416 36.0681C98.2416 36.0681 96.4282 5.53545 67.2522 7.32723C38.0761 9.1178 43.6622 41.7419 43.6622 41.7419Z" fill="#1A222D"/>
</svg>
