<svg width="138" height="138" viewBox="0 0 138 138" fill="none" xmlns="http://www.w3.org/2000/svg">
<path d="M69 138C107.108 138 138 108.559 138 72.2409C138 35.9231 107.108 6.48169 69 6.48169C30.8924 6.48169 0 35.9231 0 72.2409C0 108.559 30.8924 138 69 138Z" fill="#FCE8E3"/>
<path d="M68.7863 90.1838C80.1592 90.1838 89.3787 88.9364 89.3787 87.3977C89.3787 85.859 80.1592 84.6116 68.7863 84.6116C57.4134 84.6116 48.1938 85.859 48.1938 87.3977C48.1938 88.9364 57.4134 90.1838 68.7863 90.1838Z" fill="#B6010F"/>
<path d="M87.2538 63.5797H50.7476V102.877H87.2538V63.5797Z" fill="#E2988F"/>
<path d="M105.858 38.1102C103.783 33.3791 99.5407 35.7022 99.5407 35.7022C101.991 14.1956 90.5158 0 69.0012 0C47.4866 0 36.0118 14.1956 38.4617 35.7022C38.4617 35.7022 34.2206 33.3803 32.1439 38.1102C30.0685 42.8412 33.8584 53.9362 36.2046 57.4633C38.5507 60.9892 42.7028 63.6563 42.7028 63.6563C42.7028 63.6563 42.9736 67.6134 44.0564 70.3654C45.1392 73.1173 57.4138 85.7732 61.0233 87.7087C65.7564 90.3629 72.7281 90.3629 76.9779 87.7087C80.5873 85.7732 92.8619 73.1185 93.9448 70.3654C95.0276 67.6122 95.2983 63.6563 95.2983 63.6563C95.2983 63.6563 99.4505 60.9904 101.797 57.4633C104.143 53.9362 107.934 42.8401 105.858 38.1102Z" fill="#E2988F"/>
<path d="M34.929 48.7421C34.7287 48.0459 33.0414 41.8905 35.3666 40.2094C36.133 39.7335 36.7596 39.7818 37.154 39.9055C38.3567 40.2778 38.9649 41.7609 38.9896 41.8234L38.1243 42.1403C37.9945 41.8198 37.5137 40.9446 36.8647 40.7455C36.5668 40.6536 36.2504 40.7148 35.8981 40.9328C34.547 41.9106 35.1304 46.1021 35.8227 48.51L34.929 48.7421Z" fill="#C46966"/>
<path d="M103.072 48.7421L102.179 48.5089C102.674 46.7759 103.626 42.0343 102.075 40.9139C101.75 40.7148 101.435 40.6524 101.134 40.7455C100.487 40.9446 100.006 41.8199 99.8759 42.1403L99.0106 41.8234C99.0366 41.761 99.646 40.2778 100.847 39.9055C101.241 39.783 101.869 39.7335 102.608 40.1918C104.96 41.8894 103.273 48.0447 103.072 48.7421Z" fill="#C46966"/>
<path d="M68.9997 0C47.4851 0 36.0103 14.1956 38.4603 35.701C41.307 37.4646 41.9573 42.2616 41.5098 47.0116C41.5098 47.0116 40.5629 62.1284 43.6804 69.2604C46.7979 76.3923 52.2281 87.532 68.9948 87.3965H68.9973H69.001C85.7677 87.532 91.1979 76.3911 94.3154 69.2604C97.4329 62.1284 96.486 47.0116 96.486 47.0116H96.4897C96.0472 42.4725 96.0348 37.4964 99.5392 35.701L99.5417 35.6963C101.988 14.1932 90.5131 0 68.9997 0ZM92.5428 33.0433C92.5428 33.0433 92.1275 52.777 88.9284 57.1016C85.7293 61.4251 86.7244 51.8357 69.001 51.6684C51.2763 51.5023 52.2652 61.4251 49.0661 57.1016C45.8732 52.7864 45.4542 33.1317 45.4517 33.0469C45.6594 28.6822 46.1081 24.5213 48.0748 22.654C50.6199 20.239 54.3382 20.6325 57.5236 21.4065C61.2357 22.3089 65.0689 23.527 68.9849 23.6248C73.1321 23.7284 77.0629 22.2806 81.0383 21.3629C84.1236 20.6513 87.4785 20.3356 89.921 22.6529C91.8889 24.5213 92.3376 28.6881 92.5453 33.0551L92.5428 33.0433Z" fill="#1A222D"/>
<path d="M131.439 100.239C114.144 96.2415 89.3785 95.1765 89.3785 95.1765C76.5909 104.859 59.4954 104.996 48.1949 95.1765C48.1949 95.1765 23.8755 96.6856 6.7207 100.57C17.8272 122.705 41.5384 137.999 69.0012 137.999C96.5987 138 120.403 122.552 131.439 100.239Z" fill="#EE2737"/>
<path d="M48.1938 87.3977V97.238C62.8097 107.513 76.5504 107.657 89.3775 97.238V87.3977C82.1067 91.8885 52.8478 91.2782 48.1938 87.3977Z" fill="#EE2737"/>
<path d="M68.2992 101.206C66.3029 101.206 64.3078 101.124 62.3807 100.963C58.5599 100.643 49.4868 99.4787 47.7673 95.6076L48.6215 95.2636C49.6771 97.6421 54.8528 99.4434 62.4623 100.083C73.015 100.965 86.1549 99.3515 88.9893 95.1953L89.7669 95.676C87.239 99.3833 77.7531 101.206 68.2992 101.206Z" fill="#B6010F"/>
<path d="M68.3684 93.0195C64.6205 93.0195 60.9715 92.8546 57.9998 92.553C52.7624 92.0229 49.6313 91.1464 48.6943 89.9495L49.4385 89.4217C49.7896 89.8706 51.3384 90.9897 58.0987 91.6753C68.8319 92.7627 85.1585 91.8874 88.2006 89.3534L88.8113 90.019C86.2673 92.136 77.0533 93.0195 68.3684 93.0195Z" fill="#B6010F"/>
</svg>
