<svg width="68" height="70" viewBox="0 0 68 70" fill="none" xmlns="http://www.w3.org/2000/svg">
<g clip-path="url(#clip0_611_528)">
<path d="M12.76 43.4373C10.2394 43.4373 7.7755 44.1942 5.67975 45.6124C3.58402 47.0304 1.95057 49.046 0.986013 51.4041C0.0214469 53.7623 -0.230927 56.3572 0.260804 58.8606C0.752535 61.364 1.96628 63.6636 3.74858 65.4684C5.53086 67.2732 7.80163 68.5024 10.2737 69.0005C12.7458 69.4984 15.3082 69.2427 17.6368 68.266C19.9655 67.2892 21.956 65.6351 23.3562 63.5128C24.7566 61.3905 25.504 58.8953 25.504 56.3429C25.504 52.9201 24.1614 49.6375 21.7714 47.2173C19.3814 44.797 16.1399 43.4373 12.76 43.4373ZM12.76 63.5125C11.3597 63.5125 9.99081 63.0921 8.82651 62.3043C7.66221 61.5165 6.75475 60.3966 6.21888 59.0865C5.68301 57.7764 5.5428 56.3349 5.81598 54.9441C6.08916 53.5533 6.76347 52.2757 7.75364 51.2732C8.74379 50.2704 10.0053 49.5875 11.3787 49.3108C12.7521 49.0343 14.1756 49.1762 15.4693 49.7188C16.7631 50.2615 17.8689 51.1805 18.6467 52.3596C19.4247 53.5386 19.84 54.9248 19.84 56.3429C19.8306 58.2414 19.0818 60.0596 17.7561 61.4022C16.4302 62.7448 14.6348 63.5032 12.76 63.5125ZM0.830133 27.0546L5.92774 21.9281L0.830133 16.8017C0.378532 16.2446 0.147746 15.5372 0.182665 14.8172C0.217585 14.0972 0.515711 13.4161 1.01906 12.9064C1.52241 12.3966 2.19498 12.0947 2.90596 12.0594C3.61695 12.024 4.31549 12.2577 4.86575 12.715L9.92796 17.8773L14.9901 12.715C15.5404 12.2577 16.239 12.024 16.9499 12.0594C17.661 12.0947 18.3335 12.3966 18.8368 12.9064C19.3402 13.4161 19.6383 14.0972 19.6732 14.8172C19.7082 15.5372 19.4774 16.2446 19.0257 16.8017L13.9282 21.9281L19.0257 27.0546C19.5576 27.5982 19.8559 28.3326 19.8559 29.0978C19.8559 29.8632 19.5576 30.5975 19.0257 31.1412C18.4845 31.6712 17.7609 31.9676 17.0079 31.9676C16.2551 31.9676 15.5315 31.6712 14.9901 31.1412L9.92796 25.979L4.86575 31.1412C4.32443 31.6712 3.60092 31.9676 2.84794 31.9676C2.09496 31.9676 1.37144 31.6712 0.830133 31.1412C0.298334 30.5975 0 29.8632 0 29.0978C0 28.3326 0.298334 27.5982 0.830133 27.0546ZM67.1698 61.4693C67.7016 62.0129 68 62.7473 68 63.5125C68 64.2779 67.7016 65.0122 67.1698 65.5559C66.6286 66.0859 65.905 66.3823 65.1521 66.3823C64.3991 66.3823 63.6756 66.0859 63.1343 65.5559L58.072 60.3937L53.0099 65.5559C52.4685 66.0859 51.7449 66.3823 50.9921 66.3823C50.2391 66.3823 49.5155 66.0859 48.9743 65.5559C48.4425 65.0122 48.1441 64.2779 48.1441 63.5125C48.1441 62.7473 48.4425 62.0129 48.9743 61.4693L54.0718 56.3429L48.9743 51.2164C48.5226 50.6593 48.2918 49.9519 48.3268 49.2319C48.3617 48.5119 48.6598 47.8309 49.1632 47.3211C49.6665 46.8114 50.3391 46.5095 51.0501 46.4741C51.761 46.4387 52.4596 46.6725 53.0099 47.1298L58.072 52.292L63.1343 47.1298C63.6845 46.6725 64.3831 46.4387 65.094 46.4741C65.805 46.5095 66.4776 46.8114 66.981 47.3211C67.4843 47.8309 67.7824 48.5119 67.8174 49.2319C67.8522 49.9519 67.6214 50.6593 67.1698 51.2164L62.0722 56.3429L67.1698 61.4693ZM51.169 29.3847C48.9743 37.4148 42.2129 44.3335 34.6726 46.2335L34 46.3052C33.3641 46.3075 32.746 46.0931 32.2452 45.6965C31.7443 45.2997 31.3898 44.744 31.2388 44.1185C31.0674 43.3773 31.1902 42.5976 31.5809 41.9472C31.9714 41.2969 32.5986 40.8279 33.3274 40.6411C38.8498 39.243 44.0536 33.8658 45.7174 27.879C46.8148 23.7564 46.8502 17.4829 40.4782 11.066L39.664 10.2056V17.6263C39.664 18.3869 39.3656 19.1163 38.8345 19.6542C38.3034 20.192 37.583 20.4941 36.832 20.4941C36.0809 20.4941 35.3606 20.192 34.8295 19.6542C34.2984 19.1163 34 18.3869 34 17.6263V3.28683C34 2.52623 34.2984 1.79677 34.8295 1.25893C35.3606 0.721098 36.0809 0.418945 36.832 0.418945H50.9921C51.7431 0.418945 52.4635 0.721098 52.9946 1.25893C53.5257 1.79677 53.8241 2.52623 53.8241 3.28683C53.8241 4.04745 53.5257 4.77691 52.9946 5.31474C52.4635 5.85257 51.7431 6.15474 50.9921 6.15474H43.6642L44.5138 6.97924C50.9567 13.5396 53.3284 21.498 51.169 29.3847Z" fill="white"/>
</g>
<rect x="0.5" y="0.918945" width="67" height="67.8294" stroke="black" stroke-opacity="0.1"/>
<defs>
<clipPath id="clip0_611_528">
<rect y="0.418945" width="68" height="68.8294" fill="white"/>
</clipPath>
</defs>
</svg>
